<svg width="23" height="27" viewBox="0 0 23 27" fill="none" xmlns="http://www.w3.org/2000/svg">
<path fill-rule="evenodd" clip-rule="evenodd" d="M11.334 9.33331C10.0473 9.33331 9.00067 10.38 9.00067 11.668C9.00067 12.9546 10.0473 14 11.334 14C12.6207 14 13.6673 12.9546 13.6673 11.668C13.6673 10.38 12.6207 9.33331 11.334 9.33331ZM11.334 16C8.94467 16 7.00067 14.0573 7.00067 11.668C7.00067 9.27731 8.94467 7.33331 11.334 7.33331C13.7233 7.33331 15.6673 9.27731 15.6673 11.668C15.6673 14.0573 13.7233 16 11.334 16Z" fill="#8456EC"/>
<mask id="mask0_3504_217" style="mask-type:alpha" maskUnits="userSpaceOnUse" x="0" y="0" width="23" height="27">
<path fill-rule="evenodd" clip-rule="evenodd" d="M0.333313 0.666656H22.3326V26.6667H0.333313V0.666656Z" fill="white"/>
</mask>
<g mask="url(#mask0_3504_217)">
<path fill-rule="evenodd" clip-rule="evenodd" d="M11.3326 2.66666C6.36998 2.66666 2.33264 6.74266 2.33264 11.7507C2.33264 18.1227 9.83131 24.3307 11.3326 24.6613C12.834 24.3293 20.3326 18.1213 20.3326 11.7507C20.3326 6.74266 16.2953 2.66666 11.3326 2.66666ZM11.3326 26.6667C8.94064 26.6667 0.332642 19.264 0.332642 11.7507C0.332642 5.63866 5.26731 0.666656 11.3326 0.666656C17.398 0.666656 22.3326 5.63866 22.3326 11.7507C22.3326 19.264 13.7246 26.6667 11.3326 26.6667Z" fill="#8456EC"/>
</g>
</svg>
